<?xml version="1.0" encoding="UTF-8"?>
<svg width="129px" height="128px" viewBox="0 0 129 128" version="1.1" xmlns="http://www.w3.org/2000/svg" xmlns:xlink="http://www.w3.org/1999/xlink">
    <title>Transparent Logo</title>
    <defs>
        <linearGradient x1="81.2497634%" y1="9.76563086%" x2="24.999952%" y2="91.7968978%" id="linearGradient-1">
            <stop stop-color="#B382E8" offset="0%"></stop>
            <stop stop-color="#5D65E6" offset="93.75%"></stop>
        </linearGradient>
    </defs>
    <g id="Page-1" stroke="none" stroke-width="1" fill="none" fill-rule="evenodd">
        <g id="Group" transform="translate(0.269329, 0.000000)" fill="url(#linearGradient-1)">
            <path d="M41.8959458,11.4604049 C29.5060458,16.6730049 19.3569458,26.0965049 13.2413458,38.0664049 C7.12569579,50.0364049 5.43702579,63.7825049 8.47359579,76.8767049 C11.5101458,89.9709049 19.0766458,101.571005 29.8364458,109.627005 C40.5961458,117.684005 53.8570458,121.678005 67.2765458,120.906005 C80.6959458,120.133005 93.4107458,114.643005 103.175046,105.405005 C112.939046,96.1665049 119.124046,83.7750049 120.637046,70.4187049 C122.151046,57.0625049 118.896046,43.6011049 111.447046,32.4122049 C110.376046,30.8031049 110.812046,28.6304049 112.421046,27.5591049 C114.030046,26.4879049 116.203046,26.9239049 117.274046,28.5329049 C125.638046,41.0959049 129.293046,56.2105049 127.593046,71.2070049 C125.893046,86.2035049 118.949046,100.117005 107.986046,110.489005 C97.0225458,120.862005 82.7463458,127.027005 67.6788458,127.894005 C52.6113458,128.762005 37.7220458,124.276005 25.6408458,115.231005 C13.5596458,106.185005 5.06404579,93.1603049 1.65455579,78.4580049 C-1.75493421,63.7557049 0.14112579,48.3215049 7.00781579,34.8816049 C13.8745458,21.4417049 25.2699458,10.8609049 39.1814458,5.00821492 C53.0928458,-0.844519084 68.6250458,-1.59260508 83.0345458,2.89610492 C84.8801458,3.47100492 85.9101458,5.43314492 85.3352458,7.27867492 C84.7603458,9.12420492 82.7982458,10.1542049 80.9526458,9.57934492 C68.1192458,5.58159492 54.2858458,6.24785492 41.8959458,11.4604049 Z M105.000046,16.2500049 C105.000046,18.3211049 103.321046,20.0000049 101.250046,20.0000049 C99.1789458,20.0000049 97.5000458,18.3211049 97.5000458,16.2500049 C97.5000458,14.1789049 99.1789458,12.5000049 101.250046,12.5000049 C103.321046,12.5000049 105.000046,14.1789049 105.000046,16.2500049 Z M58.2532458,56.4280049 C58.2532458,58.3333049 60.6400458,58.9853049 65.9466458,60.3067049 C69.8400458,61.2800049 72.5466458,62.4907049 74.0933458,63.9373049 C75.6266458,65.3840049 76.3865458,67.4667049 76.3865458,70.1853049 C76.3865458,73.7533049 75.3600458,76.4480049 73.2800458,78.2680049 C71.2133458,80.0893049 68.1865458,81.0000049 64.1865458,81.0000049 L54.5865458,81.0000049 C52.6132458,81.0000049 51.0134458,79.4027049 50.9999641,77.4267049 C50.9867458,75.4347049 52.5998458,73.8147049 54.5865458,73.8147049 L64.0000458,73.8147049 C67.1467458,73.6907049 68.7865458,72.8667049 68.9065458,71.3453049 C68.9065458,70.0493049 67.8799458,69.1373049 65.8399458,68.6147049 C58.9332458,66.8933049 54.7332458,65.1773049 53.2399458,63.4680049 C51.7599458,61.7600049 51.0133458,59.6960049 51.0133458,57.2760049 C51.0133458,50.6893049 54.2134458,47.4227049 60.6000458,47.4720049 L71.3732458,47.4720049 C73.3599458,47.4720049 74.9732458,49.0800049 74.9732458,51.0640049 C74.9732458,53.0480049 73.3599458,54.6573049 71.3732458,54.6573049 L61.6800458,54.6573049 C59.8533458,54.6573049 58.2532458,54.7147049 58.2532458,56.4280049 Z" id="Shape"></path>
        </g>
    </g>
</svg>