<svg xmlns="http://www.w3.org/2000/svg" viewBox="116.41571807861328 94.03633244445984 342.16856384277344 349.7558542926007">
  <rect height="100%" width="100%" x="116.41571807861328" y="94.03633244445984" fill="rgba(20, 27, 56, 1)" />
  <svg xmlns="http://www.w3.org/2000/svg" viewBox="-0.0000457763671875 -0.000004291534423828125 128.00042724609375 127.99996948242188" fill="none" height="127.99952444213505" width="128" y="164.03633244445984" x="223.49652099609375" preserveAspectRatio="xMinYMin" style="overflow: visible;">
    <path fillRule="evenodd" clip-rule="evenodd" d="M41.8959 11.4604C29.506 16.673 19.3569 26.0965 13.2413 38.0664C7.12565 50.0364 5.43698 63.7825 8.47355 76.8767C11.5101 89.9709 19.0766 101.571 29.8364 109.627C40.5961 117.684 53.857 121.678 67.2765 120.906C80.6959 120.133 93.4107 114.643 103.175 105.405C112.939 96.1665 119.124 83.775 120.637 70.4187C122.151 57.0625 118.896 43.6011 111.447 32.4122C110.376 30.8031 110.812 28.6304 112.421 27.5591C114.03 26.4879 116.203 26.9239 117.274 28.5329C125.638 41.0959 129.293 56.2105 127.593 71.207C125.893 86.2035 118.949 100.117 107.986 110.489C97.0225 120.862 82.7463 127.027 67.6788 127.894C52.6113 128.762 37.722 124.276 25.6408 115.231C13.5596 106.185 5.064 93.1603 1.65451 78.458C-1.75498 63.7557 0.14108 48.3215 7.00777 34.8816C13.8745 21.4417 25.2699 10.8609 39.1814 5.00821C53.0928 -0.844524 68.625 -1.59261 83.0345 2.8961C84.8801 3.471 85.9101 5.43314 85.3352 7.27867C84.7603 9.1242 82.7982 10.1542 80.9526 9.57934C68.1192 5.58159 54.2858 6.24785 41.8959 11.4604ZM105 16.25C105 18.3211 103.321 20 101.25 20C99.1789 20 97.5 18.3211 97.5 16.25C97.5 14.1789 99.1789 12.5 101.25 12.5C103.321 12.5 105 14.1789 105 16.25ZM58.2532 56.428C58.2532 58.3333 60.64 58.9853 65.9466 60.3067C69.84 61.28 72.5466 62.4907 74.0933 63.9373C75.6266 65.384 76.3865 67.4667 76.3865 70.1853C76.3865 73.7533 75.36 76.448 73.28 78.268C71.2133 80.0893 68.1865 81 64.1865 81H54.5865C52.6132 81 51.0134 79.4027 51 77.4267C50.9867 75.4347 52.5998 73.8147 54.5865 73.8147H64C67.1467 73.6907 68.7865 72.8667 68.9065 71.3453C68.9065 70.0493 67.8799 69.1373 65.8399 68.6147C58.9332 66.8933 54.7332 65.1773 53.2399 63.468C51.7599 61.76 51.0133 59.696 51.0133 57.276C51.0133 50.6893 54.2134 47.4227 60.6 47.472H71.3732C73.3599 47.472 74.9732 49.08 74.9732 51.064C74.9732 53.048 73.3599 54.6573 71.3732 54.6573H61.68C59.8533 54.6573 58.2532 54.7147 58.2532 56.428Z" fill="url(#paint0_linear_454_13262)" style="fill: url(#paint0_linear_454_13262);"></path>
    <linearGradient id="paint0_linear_454_13262" x1="104" y1="12.5" x2="32" y2="117.5" gradientUnits="userSpaceOnUse" style="">
      <stop stopColor="#B382E8"></stop>
      <stop offset="0.9375" stopColor="#5D65E6"></stop>
    </linearGradient>
  </svg>
  <svg y="321.0121879577637" viewBox="2.8114285469055176 5.199999809265137 202.16856384277344 52.779998779296875" x="186.41571807861328" height="52.779998779296875" width="202.16856384277344" style="overflow: visible;">
    <g fill="#ffffff" fill-opacity="1" style="">
      <path d="M15.03 46.02L15.03 46.02Q11.39 46.02 8.29 44.90Q5.20 43.78 3.48 42.07L3.48 42.07Q2.70 41.24 2.83 40.17Q2.96 39.10 3.85 38.43L3.85 38.43Q4.89 37.60 5.90 37.73Q6.92 37.86 7.64 38.64L7.64 38.64Q8.53 39.62 10.48 40.48Q12.43 41.34 14.82 41.34L14.82 41.34Q17.84 41.34 19.42 40.35Q21.01 39.36 21.06 37.80L21.06 37.80Q21.11 36.24 19.58 35.10Q18.04 33.96 13.99 33.23L13.99 33.23Q8.74 32.19 6.37 30.11Q4.00 28.03 4.00 25.01L4.00 25.01Q4.00 22.36 5.56 20.62Q7.12 18.88 9.57 18.02Q12.01 17.16 14.66 17.16L14.66 17.16Q18.10 17.16 20.75 18.25Q23.40 19.34 24.96 21.27L24.96 21.27Q25.69 22.10 25.64 23.01Q25.58 23.92 24.75 24.54L24.75 24.54Q23.92 25.12 22.78 24.91Q21.63 24.70 20.85 23.97L20.85 23.97Q19.55 22.72 18.04 22.26Q16.54 21.79 14.56 21.79L14.56 21.79Q12.27 21.79 10.69 22.57Q9.10 23.35 9.10 24.86L9.10 24.86Q9.10 25.79 9.59 26.55Q10.09 27.30 11.54 27.90Q13.00 28.50 15.81 29.07L15.81 29.07Q19.71 29.85 21.97 31.04Q24.23 32.24 25.22 33.83Q26.21 35.41 26.21 37.49L26.21 37.49Q26.21 39.88 24.93 41.81Q23.66 43.73 21.19 44.88Q18.72 46.02 15.03 46.02ZM35.57 57.98L35.57 57.98Q34.42 57.98 33.67 57.23Q32.92 56.47 32.92 55.33L32.92 55.33L32.92 31.62Q32.97 27.51 34.84 24.23Q36.71 20.96 39.94 19.06Q43.16 17.16 47.22 17.16L47.22 17.16Q51.32 17.16 54.55 19.06Q57.77 20.96 59.67 24.23Q61.57 27.51 61.57 31.62L61.57 31.62Q61.57 35.72 59.83 38.97Q58.08 42.22 55.07 44.12Q52.05 46.02 48.26 46.02L48.26 46.02Q45.19 46.02 42.61 44.75Q40.04 43.47 38.22 41.29L38.22 41.29L38.22 55.33Q38.22 56.47 37.49 57.23Q36.76 57.98 35.57 57.98ZM47.22 41.34L47.22 41.34Q49.87 41.34 51.95 40.07Q54.03 38.79 55.25 36.58Q56.47 34.37 56.47 31.62L56.47 31.62Q56.47 28.81 55.25 26.60Q54.03 24.39 51.95 23.11Q49.87 21.84 47.22 21.84L47.22 21.84Q44.62 21.84 42.51 23.11Q40.40 24.39 39.21 26.60Q38.01 28.81 38.01 31.62L38.01 31.62Q38.01 34.37 39.21 36.58Q40.40 38.79 42.51 40.07Q44.62 41.34 47.22 41.34ZM81.33 46.02L81.33 46.02Q77.53 46.02 74.52 44.12Q71.50 42.22 69.76 38.97Q68.02 35.72 68.02 31.62L68.02 31.62Q68.02 27.51 69.91 24.23Q71.81 20.96 75.06 19.06Q78.31 17.16 82.37 17.16L82.37 17.16Q86.42 17.16 89.65 19.06Q92.87 20.96 94.77 24.23Q96.67 27.51 96.67 31.62L96.67 31.62L94.64 31.62Q94.64 35.72 92.90 38.97Q91.16 42.22 88.14 44.12Q85.12 46.02 81.33 46.02ZM82.37 41.34L82.37 41.34Q85.02 41.34 87.10 40.07Q89.18 38.79 90.38 36.58Q91.57 34.37 91.57 31.62L91.57 31.62Q91.57 28.81 90.38 26.60Q89.18 24.39 87.10 23.11Q85.02 21.84 82.37 21.84L82.37 21.84Q79.77 21.84 77.66 23.11Q75.56 24.39 74.33 26.60Q73.11 28.81 73.11 31.62L73.11 31.62Q73.11 34.37 74.33 36.58Q75.56 38.79 77.66 40.07Q79.77 41.34 82.37 41.34ZM94.02 45.86L94.02 45.86Q92.87 45.86 92.12 45.11Q91.36 44.36 91.36 43.21L91.36 43.21L91.36 35.26L92.35 29.74L96.67 31.62L96.67 43.21Q96.67 44.36 95.91 45.11Q95.16 45.86 94.02 45.86ZM117.47 46.02L117.47 46.02Q113.31 46.02 110.06 44.12Q106.81 42.22 104.96 38.97Q103.12 35.72 103.12 31.62L103.12 31.62Q103.12 27.40 104.94 24.13Q106.76 20.85 109.93 19.01Q113.10 17.16 117.21 17.16L117.21 17.16Q120.28 17.16 122.82 18.33Q125.37 19.50 127.40 21.84L127.40 21.84Q128.13 22.67 127.92 23.56Q127.71 24.44 126.78 25.12L126.78 25.12Q126.05 25.64 125.16 25.45Q124.28 25.27 123.55 24.54L123.55 24.54Q121.00 21.84 117.21 21.84L117.21 21.84Q114.56 21.84 112.53 23.06Q110.50 24.28 109.36 26.47Q108.21 28.65 108.21 31.62L108.21 31.62Q108.21 34.42 109.38 36.61Q110.55 38.79 112.63 40.07Q114.71 41.34 117.47 41.34L117.47 41.34Q119.29 41.34 120.67 40.90Q122.04 40.46 123.19 39.52L123.19 39.52Q124.02 38.84 124.90 38.77Q125.79 38.69 126.46 39.26L126.46 39.26Q127.35 39.99 127.45 40.90Q127.56 41.81 126.83 42.54L126.83 42.54Q123.08 46.02 117.47 46.02ZM156.78 21.16L140.82 35.41L137.59 31.88L153.56 17.63Q154.34 16.90 155.30 16.95Q156.26 17.00 156.94 17.78L156.94 17.78Q157.66 18.56 157.61 19.50Q157.56 20.44 156.78 21.16L156.78 21.16ZM138.37 45.81L138.37 45.81Q137.23 45.81 136.53 45.11Q135.82 44.41 135.82 43.26L135.82 43.26L135.82 7.75Q135.82 6.60 136.53 5.90Q137.23 5.20 138.37 5.20L138.37 5.20Q139.52 5.20 140.22 5.90Q140.92 6.60 140.92 7.75L140.92 7.75L140.92 43.26Q140.92 44.41 140.22 45.11Q139.52 45.81 138.37 45.81ZM156.94 45.55L156.94 45.55Q156.10 46.23 155.09 46.15Q154.08 46.07 153.40 45.24L153.40 45.24L142.84 32.19L146.48 28.76L157.30 42.07Q157.98 42.90 157.90 43.86Q157.82 44.82 156.94 45.55ZM172.28 45.81L172.17 45.81Q169.88 45.81 168.12 44.56Q166.35 43.32 165.36 41.16Q164.37 39.00 164.37 36.19L164.37 36.19L164.37 7.80Q164.37 6.66 165.10 5.93Q165.83 5.20 166.97 5.20L166.97 5.20Q168.12 5.20 168.84 5.93Q169.57 6.66 169.57 7.80L169.57 7.80L169.57 36.19Q169.57 38.12 170.30 39.36Q171.03 40.61 172.17 40.61L172.17 40.61L173.47 40.61Q174.51 40.61 175.16 41.34Q175.81 42.07 175.81 43.21L175.81 43.21Q175.81 44.36 174.82 45.08Q173.84 45.81 172.28 45.81L172.28 45.81ZM192.82 46.02L192.82 46.02Q188.50 46.02 185.15 44.17Q181.79 42.33 179.89 39.08Q178.00 35.83 178.00 31.62L178.00 31.62Q178.00 27.35 179.79 24.10Q181.58 20.85 184.76 19.01Q187.93 17.16 192.04 17.16L192.04 17.16Q196.09 17.16 199.00 18.95Q201.92 20.75 203.45 23.89Q204.98 27.04 204.98 31.15L204.98 31.15Q204.98 32.14 204.31 32.79Q203.63 33.44 202.59 33.44L202.59 33.44L181.64 33.44L181.64 29.28L202.44 29.28L200.30 30.73Q200.25 28.13 199.26 26.08Q198.28 24.02 196.46 22.83Q194.64 21.63 192.04 21.63L192.04 21.63Q189.07 21.63 186.97 22.93Q184.86 24.23 183.77 26.49Q182.68 28.76 182.68 31.62L182.68 31.62Q182.68 34.48 183.98 36.71Q185.28 38.95 187.56 40.25Q189.85 41.55 192.82 41.55L192.82 41.55Q194.43 41.55 196.12 40.95Q197.81 40.35 198.85 39.57L198.85 39.57Q199.63 39.00 200.54 38.97Q201.45 38.95 202.12 39.52L202.12 39.52Q203.01 40.30 203.06 41.24Q203.11 42.17 202.23 42.85L202.23 42.85Q200.46 44.25 197.83 45.14Q195.21 46.02 192.82 46.02Z" transform="translate(0, 0)"></path>
    </g>
  </svg>
</svg>